<svg width="22" height="21" viewBox="0 0 22 21" fill="none" xmlns="http://www.w3.org/2000/svg">
<g clip-path="url(#clip0_62_56)">
<path d="M9.27575 10.7375H3.97532V5.73749H9.27575V10.7375ZM5.30043 6.98749V9.48749H7.95064V6.98749H5.30043ZM17.2264 5.73749V10.7375H11.926V5.73749H17.2264ZM15.9013 9.48749V6.98749H13.2511V9.48749H15.9013ZM0 3.23749H21.2017V10.7375H19.8766V4.48749H1.32511V11.9875H10.6009V13.2375H0V3.23749ZM20.5909 14.1066L21.0982 15.2687L19.8145 15.7668C19.8559 15.9621 19.8766 16.1607 19.8766 16.3625C19.8766 16.5643 19.8559 16.7629 19.8145 16.9582L21.0982 17.4562L20.5909 18.6183L19.3072 18.1105C19.0657 18.4426 18.7689 18.7225 18.4169 18.9504L18.9552 20.1613L17.7233 20.6398L17.1953 19.4289C16.9883 19.468 16.7778 19.4875 16.5638 19.4875C16.3499 19.4875 16.1394 19.468 15.9323 19.4289L15.4044 20.6398L14.1724 20.1613L14.7108 18.9504C14.3588 18.7225 14.062 18.4426 13.8205 18.1105L12.5368 18.6183L12.0295 17.4562L13.3132 16.9582C13.2718 16.7629 13.2511 16.5643 13.2511 16.3625C13.2511 16.1607 13.2718 15.9621 13.3132 15.7668L12.0295 15.2687L12.5368 14.1066L13.8205 14.6144C14.062 14.2824 14.3588 14.0025 14.7108 13.7746L14.1724 12.5637L15.4044 12.0851L15.9323 13.2961C16.1394 13.257 16.3499 13.2375 16.5638 13.2375C16.7778 13.2375 16.9883 13.257 17.1953 13.2961L17.7233 12.0851L18.9552 12.5637L18.4169 13.7746C18.7689 14.0025 19.0657 14.2824 19.3072 14.6144L20.5909 14.1066ZM18.5515 16.3625C18.5515 16.1021 18.4997 15.8579 18.3962 15.6301C18.2927 15.4022 18.1512 15.2036 17.9718 15.0344C17.7923 14.8651 17.5818 14.7316 17.3403 14.634C17.0987 14.5363 16.8399 14.4875 16.5638 14.4875C16.2878 14.4875 16.029 14.5363 15.7874 14.634C15.5459 14.7316 15.3354 14.8651 15.1559 15.0344C14.9765 15.2036 14.835 15.4022 14.7315 15.6301C14.6279 15.8579 14.5762 16.1021 14.5762 16.3625C14.5762 16.6229 14.6279 16.867 14.7315 17.0949C14.835 17.3228 14.9765 17.5213 15.1559 17.6906C15.3354 17.8599 15.5459 17.9933 15.7874 18.091C16.029 18.1887 16.2878 18.2375 16.5638 18.2375C16.8399 18.2375 17.0987 18.1887 17.3403 18.091C17.5818 17.9933 17.7923 17.8599 17.9718 17.6906C18.1512 17.5213 18.2927 17.3228 18.3962 17.0949C18.4997 16.867 18.5515 16.6229 18.5515 16.3625Z" fill="white"/>
</g>
<defs>
<clipPath id="clip0_62_56">
<rect width="21.2017" height="20" fill="white" transform="translate(0 0.737488)"/>
</clipPath>
</defs>
</svg>
