<svg width="20" height="21" viewBox="0 0 20 21" fill="none" xmlns="http://www.w3.org/2000/svg">
<path d="M17.5 6.33333V16.3333C17.5 16.7917 17.3367 17.1842 17.01 17.5108C16.6833 17.8375 16.2911 18.0006 15.8333 18H4.16667C3.70833 18 3.31583 17.8367 2.98917 17.51C2.6625 17.1833 2.49945 16.7911 2.5 16.3333V4.66667C2.5 4.20833 2.66333 3.81583 2.99 3.48917C3.31667 3.1625 3.70889 2.99945 4.16667 3H14.1667L17.5 6.33333ZM10 15.5C10.6944 15.5 11.2847 15.2569 11.7708 14.7708C12.2569 14.2847 12.5 13.6944 12.5 13C12.5 12.3056 12.2569 11.7153 11.7708 11.2292C11.2847 10.7431 10.6944 10.5 10 10.5C9.30556 10.5 8.71528 10.7431 8.22917 11.2292C7.74306 11.7153 7.5 12.3056 7.5 13C7.5 13.6944 7.74306 14.2847 8.22917 14.7708C8.71528 15.2569 9.30556 15.5 10 15.5ZM5 8.83333H12.5V5.5H5V8.83333Z" fill="white"/>
</svg>
