<svg width="20" height="21" viewBox="0 0 20 21" fill="none" xmlns="http://www.w3.org/2000/svg">
<path d="M14.1667 15.5C13.2417 15.5 12.5 16.2417 12.5 17.1667C12.5 17.6087 12.6756 18.0326 12.9882 18.3452C13.3008 18.6578 13.7247 18.8334 14.1667 18.8334C14.6087 18.8334 15.0327 18.6578 15.3452 18.3452C15.6578 18.0326 15.8334 17.6087 15.8334 17.1667C15.8334 16.7247 15.6578 16.3007 15.3452 15.9882C15.0327 15.6756 14.6087 15.5 14.1667 15.5ZM0.833374 2.16669V3.83335H2.50004L5.50004 10.1584L4.36671 12.2C4.24171 12.4334 4.16671 12.7084 4.16671 13C4.16671 13.442 4.3423 13.866 4.65486 14.1785C4.96742 14.4911 5.39135 14.6667 5.83337 14.6667H15.8334V13H6.18337C6.12812 13 6.07513 12.9781 6.03606 12.939C5.99699 12.8999 5.97504 12.8469 5.97504 12.7917C5.97504 12.75 5.98337 12.7167 6.00004 12.6917L6.75004 11.3334H12.9584C13.5834 11.3334 14.1334 10.9834 14.4167 10.475L17.4 5.08335C17.4584 4.95002 17.5 4.80835 17.5 4.66669C17.5 4.44567 17.4122 4.23371 17.256 4.07743C17.0997 3.92115 16.8877 3.83335 16.6667 3.83335H4.34171L3.55837 2.16669M5.83337 15.5C4.90837 15.5 4.16671 16.2417 4.16671 17.1667C4.16671 17.6087 4.3423 18.0326 4.65486 18.3452C4.96742 18.6578 5.39135 18.8334 5.83337 18.8334C6.2754 18.8334 6.69932 18.6578 7.01188 18.3452C7.32445 18.0326 7.50004 17.6087 7.50004 17.1667C7.50004 16.7247 7.32445 16.3007 7.01188 15.9882C6.69932 15.6756 6.2754 15.5 5.83337 15.5Z" fill="white"/>
</svg>
