<svg width="20" height="21" viewBox="0 0 20 21" fill="none" xmlns="http://www.w3.org/2000/svg">
<path d="M10 8.23749C9.337 8.23749 8.70111 8.50088 8.23227 8.96972C7.76343 9.43856 7.50004 10.0744 7.50004 10.7375C7.50004 11.4005 7.76343 12.0364 8.23227 12.5053C8.70111 12.9741 9.337 13.2375 10 13.2375C10.6631 13.2375 11.299 12.9741 11.7678 12.5053C12.2366 12.0364 12.5 11.4005 12.5 10.7375C12.5 10.0744 12.2366 9.43856 11.7678 8.96972C11.299 8.50088 10.6631 8.23749 10 8.23749ZM10 14.9042C8.89497 14.9042 7.83516 14.4652 7.05376 13.6838C6.27236 12.9024 5.83337 11.8426 5.83337 10.7375C5.83337 9.63242 6.27236 8.57261 7.05376 7.79121C7.83516 7.00981 8.89497 6.57082 10 6.57082C11.1051 6.57082 12.1649 7.00981 12.9463 7.79121C13.7277 8.57261 14.1667 9.63242 14.1667 10.7375C14.1667 11.8426 13.7277 12.9024 12.9463 13.6838C12.1649 14.4652 11.1051 14.9042 10 14.9042ZM10 4.48749C5.83337 4.48749 2.27504 7.07915 0.833374 10.7375C2.27504 14.3958 5.83337 16.9875 10 16.9875C14.1667 16.9875 17.725 14.3958 19.1667 10.7375C17.725 7.07915 14.1667 4.48749 10 4.48749Z" fill="white"/>
</svg>
