<svg width="16" height="16" viewBox="0 0 16 16" fill="none" xmlns="http://www.w3.org/2000/svg">
<path d="M7.99996 0.459961L5.79329 2.66663H2.66663V5.79329L0.459961 7.99996L2.66663 10.2066V13.3333H5.79329L7.99996 15.54L8.66663 14.8733V11.8866L10.8266 14.0466L11.7733 13.1066L8.66663 9.99996V8.66663H9.99996L13.1066 11.7733L14.0466 10.8266L11.8866 8.66663H14.6666V7.33329H11.8866L14.0466 5.17329L13.1066 4.22663L9.99996 7.33329H8.66663V5.99996L11.7733 2.89329L10.8266 1.95329L8.66663 4.11329V1.12663M7.33329 4.05996V5.41996C6.15996 5.72663 5.33329 6.78663 5.33329 7.99996C5.33487 8.59052 5.53196 9.16393 5.89377 9.63068C6.25559 10.0974 6.76177 10.4312 7.33329 10.58V11.94C6.40192 11.7825 5.55631 11.3006 4.94622 10.5794C4.33613 9.85832 4.00092 8.94455 3.99996 7.99996C3.99996 6.04663 5.40663 4.37996 7.33329 4.05996Z" fill="#228ECE"/>
</svg>
