<svg width="20" height="21" viewBox="0 0 20 21" fill="none" xmlns="http://www.w3.org/2000/svg">
<g clip-path="url(#clip0_79_135)">
<path fill-rule="evenodd" clip-rule="evenodd" d="M16.2458 3.11081C16.4304 2.99966 16.6508 2.9643 16.8609 3.01215C17.0709 3.06001 17.2543 3.18735 17.3725 3.36748L18.1975 4.62581C18.3053 4.79027 18.3514 4.98754 18.3278 5.18274C18.3041 5.37794 18.2122 5.5585 18.0683 5.69248L18.0658 5.69581L18.0542 5.70665L18.0067 5.75081L17.8192 5.92998C16.7817 6.93631 15.7756 7.97459 14.8025 9.04331C12.9717 11.0566 10.7975 13.6916 9.33418 16.2483C8.92584 16.9616 7.92834 17.115 7.33668 16.4991L1.93251 10.8841C1.85506 10.8036 1.79459 10.7084 1.75469 10.6041C1.71479 10.4997 1.69627 10.3884 1.70023 10.2768C1.7042 10.1652 1.73056 10.0555 1.77777 9.95424C1.82497 9.853 1.89205 9.76228 1.97501 9.68748L3.60834 8.21415C3.75188 8.08474 3.93593 8.00924 4.12899 8.00057C4.32205 7.99191 4.51213 8.05062 4.66668 8.16665L7.42418 10.2341C11.7308 5.98664 14.1742 4.35664 16.2458 3.11081Z" fill="white"/>
</g>
<defs>
<clipPath id="clip0_79_135">
<rect width="20" height="20" fill="white" transform="translate(0 0.5)"/>
</clipPath>
</defs>
</svg>
