<svg width="24" height="24" viewBox="0 0 24 24" fill="none" xmlns="http://www.w3.org/2000/svg">
<path fill-rule="evenodd" clip-rule="evenodd" d="M6.9601 16.8H6.0001V18H6.9601C7.3201 18 7.5601 17.76 7.5601 17.4C7.5601 17.04 7.3201 16.8 6.9601 16.8ZM13.2001 2.39999H3.6001V21.6H19.2001V8.39999L13.2001 2.39999ZM8.6401 17.52C8.6401 18.48 7.9201 19.2 6.9601 19.2H6.0001V20.4H4.8001V15.6H6.9601C7.9201 15.6 8.6401 16.32 8.6401 17.28V17.52ZM13.5601 18.12C13.5601 19.32 12.6001 20.4 11.2801 20.4H9.6001V15.6H11.2801C12.4801 15.6 13.5601 16.56 13.5601 17.88V18.12ZM18.0001 16.8H15.6001V18H17.4001V19.2H15.6001V20.4H14.4001V15.6H18.0001V16.8ZM18.0001 14.4H4.8001V3.59999H13.2001V8.39999H18.0001V14.4ZM11.2801 16.8H10.8001V19.2H11.2801C12.0001 19.2 12.4801 18.72 12.4801 18C12.4801 17.28 11.8801 16.8 11.2801 16.8Z" fill="white"/>
</svg>
