<svg width="24" height="24" viewBox="0 0 24 24" fill="none" xmlns="http://www.w3.org/2000/svg">
<path d="M8.80001 11.2C7.73915 11.2 6.72173 10.7786 5.97159 10.0284C5.22144 9.27829 4.80001 8.26087 4.80001 7.20001V4.00001C4.80001 3.78783 4.8843 3.58435 5.03433 3.43432C5.18436 3.28429 5.38784 3.20001 5.60001 3.20001H6.40001C6.61219 3.20001 6.81567 3.11572 6.9657 2.96569C7.11573 2.81566 7.20001 2.61218 7.20001 2.40001C7.20001 2.18783 7.11573 1.98435 6.9657 1.83432C6.81567 1.68429 6.61219 1.60001 6.40001 1.60001H5.60001C4.96349 1.60001 4.35304 1.85286 3.90296 2.30295C3.45287 2.75304 3.20001 3.36349 3.20001 4.00001V7.20001C3.20104 8.1038 3.42143 8.99383 3.84225 9.79367C4.26307 10.5935 4.87175 11.2793 5.61601 11.792C6.33108 12.4224 6.91098 13.1912 7.32072 14.0519C7.73046 14.9127 7.96154 15.8475 8.00001 16.8C8.00001 18.2852 8.59001 19.7096 9.64022 20.7598C10.6904 21.81 12.1148 22.4 13.6 22.4C15.0852 22.4 16.5096 21.81 17.5598 20.7598C18.61 19.7096 19.2 18.2852 19.2 16.8V15.888C19.9541 15.6933 20.6114 15.2302 21.0485 14.5856C21.4856 13.941 21.6726 13.1591 21.5745 12.3864C21.4764 11.6138 21.0998 10.9034 20.5154 10.3885C19.931 9.87368 19.1789 9.58962 18.4 9.58962C17.6212 9.58962 16.869 9.87368 16.2846 10.3885C15.7002 10.9034 15.3237 11.6138 15.2255 12.3864C15.1274 13.1591 15.3144 13.941 15.7515 14.5856C16.1887 15.2302 16.8459 15.6933 17.6 15.888V16.8C17.6 17.8609 17.1786 18.8783 16.4284 19.6284C15.6783 20.3786 14.6609 20.8 13.6 20.8C12.5391 20.8 11.5217 20.3786 10.7716 19.6284C10.0214 18.8783 9.60001 17.8609 9.60001 16.8C9.64051 15.8463 9.87409 14.9108 10.2866 14.05C10.6991 13.1892 11.282 12.421 12 11.792C12.7413 11.2775 13.3469 10.591 13.7649 9.79122C14.1828 8.99149 14.4008 8.10238 14.4 7.20001V4.00001C14.4 3.36349 14.1472 2.75304 13.6971 2.30295C13.247 1.85286 12.6365 1.60001 12 1.60001H11.2C10.9878 1.60001 10.7844 1.68429 10.6343 1.83432C10.4843 1.98435 10.4 2.18783 10.4 2.40001C10.4 2.61218 10.4843 2.81566 10.6343 2.96569C10.7844 3.11572 10.9878 3.20001 11.2 3.20001H12C12.2122 3.20001 12.4157 3.28429 12.5657 3.43432C12.7157 3.58435 12.8 3.78783 12.8 4.00001V7.20001C12.8 7.72529 12.6966 8.24544 12.4955 8.73074C12.2945 9.21604 11.9999 9.657 11.6284 10.0284C11.257 10.3999 10.816 10.6945 10.3307 10.8955C9.84544 11.0965 9.3253 11.2 8.80001 11.2ZM18.4 14.4C17.9757 14.4 17.5687 14.2314 17.2686 13.9314C16.9686 13.6313 16.8 13.2244 16.8 12.8C16.8 12.3757 16.9686 11.9687 17.2686 11.6686C17.5687 11.3686 17.9757 11.2 18.4 11.2C18.8244 11.2 19.2313 11.3686 19.5314 11.6686C19.8314 11.9687 20 12.3757 20 12.8C20 13.2244 19.8314 13.6313 19.5314 13.9314C19.2313 14.2314 18.8244 14.4 18.4 14.4Z" fill="#153D68"/>
</svg>
