<svg width="24" height="24" viewBox="0 0 24 24" fill="none" xmlns="http://www.w3.org/2000/svg">
<path d="M14.9671 2.028C14.5682 1.6623 14.0435 1.46471 13.5024 1.47645C12.9614 1.48818 12.4458 1.70834 12.0631 2.091L2.13908 12.0165C1.94405 12.2115 1.78935 12.443 1.6838 12.6978C1.57825 12.9526 1.52393 13.2257 1.52393 13.5015C1.52393 13.7773 1.57825 14.0504 1.6838 14.3052C1.78935 14.56 1.94405 14.7915 2.13908 14.9865L3.52808 16.374C4.04858 16.896 4.79708 16.77 5.23808 16.476C5.55542 16.2651 5.93599 16.1705 6.31515 16.2083C6.69432 16.2461 7.04871 16.414 7.31815 16.6834C7.58759 16.9529 7.75547 17.3073 7.79328 17.6864C7.83109 18.0656 7.7365 18.4462 7.52558 18.7635C7.23308 19.2045 7.10708 19.9545 7.62758 20.475L8.98508 21.831C9.18384 22.03 9.42054 22.187 9.68113 22.2927C9.94172 22.3985 10.2209 22.4508 10.5021 22.4466C10.7833 22.4424 11.0608 22.3818 11.3181 22.2683C11.5754 22.1548 11.8073 21.9908 12.0001 21.786L21.8971 11.268C22.0876 11.0656 22.236 10.8273 22.3338 10.567C22.4315 10.3068 22.4766 10.0297 22.4664 9.75187C22.4562 9.47406 22.3909 9.20103 22.2744 8.94862C22.1579 8.69622 21.9924 8.46946 21.7876 8.2815L20.4571 7.062C20.3109 6.93169 20.1364 6.83716 19.9474 6.78588C19.7584 6.73459 19.5601 6.72796 19.3681 6.7665C19.0276 6.8265 18.7051 7.0065 18.4711 7.2615C18.3246 7.42126 18.1481 7.5506 17.9517 7.64214C17.7552 7.73369 17.5427 7.78565 17.3262 7.79505C17.1096 7.80445 16.8934 7.77111 16.6898 7.69694C16.4861 7.62277 16.2991 7.50921 16.1393 7.36275C15.9796 7.2163 15.8502 7.03981 15.7587 6.84336C15.6671 6.64692 15.6152 6.43437 15.6058 6.21785C15.5964 6.00132 15.6297 5.78507 15.7039 5.58143C15.7781 5.37779 15.8916 5.19076 16.0381 5.031C16.2736 4.779 16.4251 4.4415 16.4566 4.0965C16.4783 3.90182 16.4543 3.70477 16.3866 3.52096C16.3189 3.33715 16.2093 3.17162 16.0666 3.0375L14.9671 2.028Z" fill="#153D68"/>
</svg>
