<svg width="24" height="24" viewBox="0 0 24 24" fill="none" xmlns="http://www.w3.org/2000/svg">
<path fill-rule="evenodd" clip-rule="evenodd" d="M8 2.5H14.5L19 7V18.5C19 18.7652 18.8946 19.0196 18.7071 19.2071C18.5196 19.3946 18.2652 19.5 18 19.5H8C7.73478 19.5 7.48043 19.3946 7.29289 19.2071C7.10536 19.0196 7 18.7652 7 18.5V3.5C7 3.23478 7.10536 2.98043 7.29289 2.79289C7.48043 2.60536 7.73478 2.5 8 2.5ZM17.5 7L14.5 4V6.5C14.5 6.63261 14.5527 6.75979 14.6464 6.85355C14.7402 6.94732 14.8674 7 15 7H17.5ZM16.3535 10.6465C16.4472 10.7403 16.4999 10.8674 16.4999 11C16.4999 11.1326 16.4472 11.2597 16.3535 11.3535L12 15.707L9.6465 13.3535C9.55542 13.2592 9.50502 13.1329 9.50616 13.0018C9.5073 12.8707 9.55989 12.7453 9.65259 12.6526C9.74529 12.5599 9.8707 12.5073 10.0018 12.5062C10.1329 12.505 10.2592 12.5554 10.3535 12.6465L12 14.293L15.6465 10.6465C15.7403 10.5528 15.8674 10.5001 16 10.5001C16.1326 10.5001 16.2597 10.5528 16.3535 10.6465Z" fill="white"/>
<path d="M6 5.5H5V19C5 19.663 5.26339 20.2989 5.73223 20.7678C6.20107 21.2366 6.83696 21.5 7.5 21.5H17V20.5H7.5C7.10218 20.5 6.72064 20.342 6.43934 20.0607C6.15804 19.7794 6 19.3978 6 19V5.5Z" fill="white"/>
</svg>
